<svg width="50" viewBox="0 0 449.31 449.31">
	<path
		d="M160.91 98.83l53.3-53.8v193.3a10.45 10.45 0 1020.9 0V45.03l53.28 53.8a11.5 11.5 0 0014.63 0 10.97 10.97 0 000-15.15l-71.05-71.57a10.97 10.97 0 00-14.63 0l-71.05 71.57a10.97 10.97 0 000 15.15 10.97 10.97 0 0014.62 0z"
		fill="#999" />
	<path
		d="M446.74 255.57L387.7 128.09a10.97 10.97 0 00-9.4-6.8h-50.16a10.45 10.45 0 100 20.9h43.37l48.58 109.72h-59.55a68.44 68.44 0 00-62.7 40.23 48.59 48.59 0 01-43.88 27.69h-60.6a48.59 48.59 0 01-43.9-27.7 68.44 68.44 0 00-62.69-40.22H29.26L86.73 142.2h33.43a10.45 10.45 0 100-20.9h-39.7a11.5 11.5 0 00-9.4 6.27L2.08 254.52A10.97 10.97 0 000 259.75v130.61c0 28.73 25.08 49.63 53.81 49.63H395.5c28.74 0 53.82-20.9 53.82-49.63V259.75a6.2 6.2 0 00-2.57-4.18zM428.4 390.36c0 17.24-15.68 28.73-32.92 28.73H53.81c-17.24 0-32.91-11.49-32.91-28.73V272.81h66.87a48.59 48.59 0 0143.89 27.69 68.44 68.44 0 0062.7 40.23h60.6a68.44 68.44 0 0062.69-40.23 48.59 48.59 0 0143.89-27.7h66.87v117.56z"
		fill="#999" />
</svg>